<svg width="571" height="235" viewBox="0 0 571 235" fill="none" xmlns="http://www.w3.org/2000/svg">
<path d="M37.537 171.57L42.8499 68.0879L78.7497 62.2604L119.314 153.041L106.645 158.218L91.0482 136.221L52.864 148.257L52.6634 170.45L37.537 171.57ZM53.4634 85.0621L52.9448 136.396L86.073 129.197L54.6338 84.7969L53.4634 85.0621Z" fill="#3C2307"/>
<path d="M143.609 66.3806C158.859 64.4391 172.841 64.5623 185.554 66.7503C198.365 68.9553 208.158 73.076 214.933 79.1124C215.743 84.4269 215.75 89.4001 214.952 94.032C213.171 104.38 207.278 112.092 197.272 117.168C202.143 122.471 205.681 128.154 207.884 134.215C210.187 140.294 210.931 145.698 210.117 150.429C208.777 158.214 204.086 163.952 196.043 167.641C188.001 171.331 176.342 171.861 161.067 169.232C152.394 167.739 143.922 165.672 135.65 163.031L143.609 66.3806ZM153.35 154.814C158.516 157.225 163.563 158.855 168.491 159.703C173.418 160.551 176.721 160.815 178.4 160.495C183.036 154.19 185.957 147.539 187.161 140.542C188.382 133.446 187.799 127.106 185.412 121.52C179.041 123.163 171.193 124.248 161.869 124.774L153.35 154.814ZM190.114 95.0843C190.657 91.9307 190.518 88.609 189.698 85.1194C188.895 81.5312 187.406 78.6874 185.23 76.588C182.964 76.1979 179.708 76.2465 175.464 76.7337L164.206 116.5C171.267 114.976 177.118 112.228 181.759 108.258C186.515 104.206 189.3 99.8148 190.114 95.0843Z" fill="#3C2307"/>
<path d="M311.905 120.007C313.484 125.899 314.321 130.954 314.416 135.173C314.485 139.296 313.666 143.191 311.957 146.858C308.628 153.755 300.009 159.066 286.1 162.793C272.287 166.494 260.724 166.228 251.411 161.994C247.595 154.32 244.626 146.523 242.503 138.603C238.207 122.568 237.358 107.422 239.956 93.1636C242.651 78.8795 247.295 68.007 253.889 60.5462C266.432 62.1544 278.131 68.3372 288.985 79.0945C299.813 89.7553 307.453 103.393 311.905 120.007ZM292.626 118.184C288.641 103.309 282.761 91.2186 274.988 81.9134C267.922 93.0207 263.247 104.937 260.962 117.662C258.775 130.361 259.143 142.167 262.068 153.082C265.533 152.879 269.535 152.168 274.075 150.952C282.962 148.571 290.295 145.415 296.075 141.486C295.795 133.485 294.645 125.718 292.626 118.184Z" fill="#3C2307"/>
<path d="M387.584 175.831C378.988 173.528 372.552 168.956 368.276 162.116C364.097 155.303 362.946 145.884 364.822 133.86L375.066 67.8103L410.132 74.8768C393.696 120.373 385.284 143.846 384.896 145.295C381.946 156.306 385.735 163.223 396.263 166.044C401.093 167.338 405.586 166.989 409.744 164.997C413.927 162.909 417.05 158.207 419.114 150.892L438.431 84.0126L453.114 87.1705L430.521 154.104C423.727 174.438 409.414 181.68 387.584 175.831Z" fill="#3C2307"/>
<path d="M474.186 73.944L550.042 62.7394L550.79 72.7715L530.189 77.3551L531.449 166.035L515.245 169.488L497.519 84.5936L476.918 89.1772L474.186 73.944Z" fill="#3C2307"/>
<path d="M37.537 168.57L42.8499 65.0879L78.7497 59.2604L119.314 150.041L106.645 155.218L91.0482 133.221L52.864 145.257L52.6634 167.45L37.537 168.57ZM53.4634 82.0621L52.9448 133.396L86.073 126.197L54.6338 81.7969L53.4634 82.0621Z" fill="#EC4747"/>
<path d="M143.609 63.3806C158.859 61.4391 172.841 61.5623 185.554 63.7503C198.365 65.9553 208.158 70.076 214.933 76.1124C215.743 81.4269 215.75 86.4001 214.952 91.032C213.171 101.38 207.278 109.092 197.272 114.168C202.143 119.471 205.681 125.154 207.884 131.215C210.187 137.294 210.931 142.698 210.117 147.429C208.777 155.214 204.086 160.952 196.043 164.641C188.001 168.331 176.342 168.861 161.067 166.232C152.394 164.739 143.922 162.672 135.65 160.031L143.609 63.3806ZM153.35 151.814C158.516 154.225 163.563 155.855 168.491 156.703C173.418 157.551 176.721 157.815 178.4 157.495C183.036 151.19 185.957 144.539 187.161 137.542C188.382 130.446 187.799 124.106 185.412 118.52C179.041 120.163 171.193 121.248 161.869 121.774L153.35 151.814ZM190.114 92.0843C190.657 88.9307 190.518 85.609 189.698 82.1194C188.895 78.5312 187.406 75.6874 185.23 73.588C182.964 73.1979 179.708 73.2465 175.464 73.7337L164.206 113.5C171.267 111.976 177.118 109.228 181.759 105.258C186.515 101.206 189.3 96.8148 190.114 92.0843Z" fill="#EC4747"/>
<path d="M311.905 117.007C313.484 122.899 314.321 127.954 314.416 132.173C314.485 136.296 313.666 140.191 311.957 143.858C308.628 150.755 300.009 156.066 286.1 159.793C272.287 163.494 260.724 163.228 251.411 158.994C247.595 151.32 244.626 143.523 242.503 135.603C238.207 119.568 237.358 104.422 239.956 90.1636C242.651 75.8795 247.295 65.007 253.889 57.5462C266.432 59.1544 278.131 65.3372 288.985 76.0945C299.813 86.7553 307.453 100.393 311.905 117.007ZM292.626 115.184C288.641 100.309 282.761 88.2186 274.988 78.9134C267.922 90.0207 263.247 101.937 260.962 114.662C258.775 127.361 259.143 139.167 262.068 150.082C265.533 149.879 269.535 149.168 274.075 147.952C282.962 145.571 290.295 142.415 296.075 138.486C295.795 130.485 294.645 122.718 292.626 115.184Z" fill="#EC4747"/>
<path d="M387.584 172.831C378.988 170.528 372.552 165.956 368.276 159.116C364.097 152.303 362.946 142.884 364.822 130.86L375.066 64.8103L410.132 71.8768C393.696 117.373 385.284 140.846 384.896 142.295C381.946 153.306 385.735 160.223 396.263 163.044C401.093 164.338 405.586 163.989 409.744 161.997C413.927 159.909 417.05 155.207 419.114 147.892L438.431 81.0126L453.114 84.1705L430.521 151.104C423.727 171.438 409.414 178.68 387.584 172.831Z" fill="#EC4747"/>
<path d="M474.186 70.944L550.042 59.7394L550.79 69.7715L530.189 74.3551L531.449 163.035L515.245 166.488L497.519 81.5936L476.918 86.1772L474.186 70.944Z" fill="#EC4747"/>
</svg>
