<svg width="1230" height="241" viewBox="0 0 1230 241" fill="none" xmlns="http://www.w3.org/2000/svg">
<path d="M17.4204 85.2728L91.7113 66.2859L93.4933 76.1869L73.4766 82.8757L83.8977 170.95L68.1372 176.06L41.7292 93.453L21.7124 100.142L17.4204 85.2728Z" fill="#3C2307"/>
<path d="M198.038 149.401C197.004 155.412 195.646 160.354 193.965 164.225C192.301 167.997 189.925 171.19 186.837 173.804C180.926 178.672 170.874 179.885 156.683 177.443C142.59 175.017 132.202 169.931 125.519 162.186C125.268 153.619 125.839 145.295 127.229 137.214C130.045 120.854 135.619 106.745 143.951 94.8869C152.381 83.0452 161.153 75.1181 170.266 71.1056C180.982 77.8205 189.015 88.3354 194.365 102.65C199.731 116.866 200.956 132.45 198.038 149.401ZM181.296 139.67C183.908 124.493 183.634 111.052 180.474 99.3462C169.405 106.472 160.168 115.334 152.763 125.931C145.457 136.546 140.845 147.421 138.929 158.558C142.161 159.824 146.093 160.856 150.725 161.653C159.791 163.214 167.772 163.42 174.666 162.273C177.763 154.891 179.973 147.357 181.296 139.67Z" fill="#3C2307"/>
<path d="M309.225 69.4306L287.233 109.643L337.579 154.387L307.445 164.791L276.82 128.738L274.526 132.925L280.397 170.485L264.848 176.204L230.811 82.2111L264.712 70.798L271.8 115.797L293.69 63.0334L309.225 69.4306Z" fill="#3C2307"/>
<path d="M415.9 188.961L358.899 175.085L377.674 77.7787L442.113 92.8711L439.077 102.462L407.535 97.8928L395.732 126.875L426.671 134.855L423.901 148.089L391.816 136.852L379.247 168.114L420.479 174.193L415.9 188.961Z" fill="#3C2307"/>
<path d="M563.684 71.1295L569.058 170.194L555.922 174.034L498.101 99.9873L496.91 100.13L506.655 177.671L491.85 180.201L484.182 82.1667L519.957 75.6139L554.926 146.809L556.117 146.666L548.88 73.6589L563.684 71.1295Z" fill="#3C2307"/>
<path d="M682.072 152.283C680.493 158.175 678.691 162.972 676.663 166.674C674.662 170.279 672.005 173.242 668.691 175.563C662.36 179.872 652.24 180.162 638.331 176.435C624.518 172.734 614.637 166.722 608.689 158.399C609.221 149.845 610.548 141.608 612.67 133.687C616.967 117.653 623.805 104.111 633.184 93.0622C642.66 82.0391 652.118 74.9454 661.559 71.781C671.618 79.4456 678.658 90.6495 682.679 105.393C686.726 120.039 686.524 135.669 682.072 152.283ZM666.288 141.066C670.274 126.191 671.227 112.78 669.148 100.835C657.475 106.921 647.468 114.903 639.127 124.781C630.883 134.685 625.298 145.094 622.374 156.009C625.477 157.565 629.298 158.952 633.838 160.168C642.725 162.549 650.653 163.483 657.623 162.97C661.381 155.901 664.269 148.6 666.288 141.066Z" fill="#3C2307"/>
<path d="M857.825 156.7L816.452 85.1704L815.293 85.481L819.571 164.62L807.114 170.288L756.533 107.282L755.664 107.515L771.903 177.393L757.608 182L738.989 85.2728L773.664 74.4288L806.777 139.475L805.055 65.2409L840.701 58.0191L870.282 151.032L857.825 156.7Z" fill="#3C2307"/>
<path d="M917.855 175.583L935.375 77.1642L970.441 84.2307L934.181 178.405L917.855 175.583Z" fill="#3C2307"/>
<path d="M1090.2 64.2197L1068.21 104.432L1118.56 149.176L1088.42 159.58L1057.8 123.527L1055.5 127.714L1061.37 165.274L1045.82 170.994L1011.79 77.0002L1045.69 65.587L1052.78 110.586L1074.67 57.8225L1090.2 64.2197Z" fill="#3C2307"/>
<path d="M1152.12 94.4737C1155.77 80.8541 1166.38 70.2382 1183.95 62.626L1205.73 87.407C1191.73 91.7319 1183.61 98.0961 1181.36 106.5C1180.4 110.074 1180.6 114.164 1181.95 118.772C1183.3 123.379 1184.67 127.938 1186.05 132.449C1187.53 136.985 1187.81 140.944 1186.91 144.325C1183.15 158.331 1170.59 166.561 1149.23 169.015L1144.8 157.734C1150.23 156.394 1154.19 154.763 1156.67 152.84C1159.15 150.917 1160.78 148.506 1161.56 145.609C1162.34 142.711 1162.04 139.164 1160.68 134.969C1159.44 130.703 1157.87 126.711 1155.97 122.992C1154.17 119.299 1152.73 114.823 1151.65 109.566C1150.67 104.334 1150.83 99.3033 1152.12 94.4737Z" fill="#3C2307"/>
<path d="M17.4204 82.2728L91.7113 63.2859L93.4933 73.1869L73.4766 79.8757L83.8977 167.95L68.1372 173.06L41.7292 90.453L21.7124 97.1419L17.4204 82.2728Z" fill="#EC4747"/>
<path d="M198.038 146.401C197.004 152.412 195.646 157.354 193.965 161.225C192.301 164.997 189.925 168.19 186.837 170.804C180.926 175.672 170.874 176.885 156.683 174.443C142.59 172.017 132.202 166.931 125.519 159.186C125.268 150.619 125.839 142.295 127.229 134.214C130.045 117.854 135.619 103.745 143.951 91.8869C152.381 80.0452 161.153 72.1181 170.266 68.1056C180.982 74.8205 189.015 85.3354 194.365 99.6501C199.731 113.866 200.956 129.45 198.038 146.401ZM181.296 136.67C183.908 121.493 183.634 108.052 180.474 96.3462C169.405 103.472 160.168 112.334 152.763 122.931C145.457 133.546 140.845 144.421 138.929 155.558C142.161 156.824 146.093 157.856 150.725 158.653C159.791 160.214 167.772 160.42 174.666 159.273C177.763 151.891 179.973 144.357 181.296 136.67Z" fill="#EC4747"/>
<path d="M309.225 66.4306L287.233 106.643L337.579 151.387L307.445 161.791L276.82 125.738L274.526 129.925L280.397 167.485L264.848 173.204L230.811 79.2111L264.712 67.798L271.8 112.797L293.69 60.0334L309.225 66.4306Z" fill="#EC4747"/>
<path d="M415.9 185.961L358.899 172.085L377.674 74.7787L442.113 89.8711L439.077 99.4622L407.535 94.8928L395.732 123.875L426.671 131.855L423.901 145.089L391.816 133.852L379.247 165.114L420.479 171.193L415.9 185.961Z" fill="#EC4747"/>
<path d="M563.684 68.1295L569.058 167.194L555.922 171.034L498.101 96.9873L496.91 97.13L506.655 174.671L491.85 177.201L484.182 79.1667L519.957 72.6139L554.926 143.809L556.117 143.666L548.88 70.6589L563.684 68.1295Z" fill="#EC4747"/>
<path d="M682.072 149.283C680.493 155.175 678.691 159.972 676.663 163.674C674.662 167.279 672.005 170.242 668.691 172.563C662.36 176.872 652.24 177.162 638.331 173.435C624.518 169.734 614.637 163.722 608.689 155.399C609.221 146.845 610.548 138.608 612.67 130.687C616.967 114.653 623.805 101.111 633.184 90.0622C642.66 79.0391 652.118 71.9454 661.559 68.781C671.618 76.4456 678.658 87.6495 682.679 102.393C686.726 117.039 686.524 132.669 682.072 149.283ZM666.288 138.066C670.274 123.191 671.227 109.78 669.148 97.8351C657.475 103.921 647.468 111.903 639.127 121.781C630.883 131.685 625.298 142.094 622.374 153.009C625.477 154.565 629.298 155.952 633.838 157.168C642.725 159.549 650.653 160.483 657.623 159.97C661.381 152.901 664.269 145.6 666.288 138.066Z" fill="#EC4747"/>
<path d="M857.825 153.7L816.452 82.1704L815.293 82.481L819.571 161.62L807.114 167.288L756.533 104.282L755.664 104.515L771.903 174.393L757.608 179L738.989 82.2728L773.664 71.4288L806.777 136.475L805.055 62.2409L840.701 55.0191L870.282 148.032L857.825 153.7Z" fill="#EC4747"/>
<path d="M917.855 172.583L935.375 74.1642L970.441 81.2307L934.181 175.405L917.855 172.583Z" fill="#EC4747"/>
<path d="M1090.2 61.2197L1068.21 101.432L1118.56 146.176L1088.42 156.58L1057.8 120.527L1055.5 124.714L1061.37 162.274L1045.82 167.994L1011.79 74.0002L1045.69 62.587L1052.78 107.586L1074.67 54.8225L1090.2 61.2197Z" fill="#EC4747"/>
<path d="M1152.12 91.4737C1155.77 77.8541 1166.38 67.2382 1183.95 59.626L1205.73 84.407C1191.73 88.7319 1183.61 95.0961 1181.36 103.5C1180.4 107.074 1180.6 111.164 1181.95 115.772C1183.3 120.379 1184.67 124.938 1186.05 129.449C1187.53 133.985 1187.81 137.944 1186.91 141.325C1183.15 155.331 1170.59 163.561 1149.23 166.015L1144.8 154.734C1150.23 153.394 1154.19 151.763 1156.67 149.84C1159.15 147.917 1160.78 145.506 1161.56 142.609C1162.34 139.711 1162.04 136.164 1160.68 131.969C1159.44 127.703 1157.87 123.711 1155.97 119.992C1154.17 116.299 1152.73 111.823 1151.65 106.566C1150.67 101.334 1150.83 96.3033 1152.12 91.4737Z" fill="#EC4747"/>
</svg>
